<svg width="54" height="55" viewBox="0 0 54 55" fill="none" xmlns="http://www.w3.org/2000/svg">
<circle cx="27" cy="27.1375" r="26.5" fill="url(#paint0_linear)" stroke="#F4F5F8"/>
<path fill-rule="evenodd" clip-rule="evenodd" d="M29.329 35.138C29.262 35.138 29.193 35.135 29.124 35.128C28.244 35.041 27.554 34.42 27.364 33.545L24.681 21.153L21.918 27.535C21.759 27.901 21.398 28.138 21 28.138H18C17.447 28.138 17 27.69 17 27.138C17 26.585 17.447 26.138 18 26.138H20.344L22.85 20.349C23.205 19.533 23.987 19.058 24.876 19.147C25.756 19.234 26.446 19.855 26.636 20.73L29.319 33.122L32.082 26.74C32.241 26.374 32.601 26.138 33 26.138H36C36.553 26.138 37 26.585 37 27.138C37 27.69 36.553 28.138 36 28.138H33.656L31.15 33.926C30.823 34.679 30.122 35.138 29.329 35.138Z" fill="#FBFCFF"/>
<defs>
<linearGradient id="paint0_linear" x1="27" y1="0.137451" x2="27" y2="54.1375" gradientUnits="userSpaceOnUse">
<stop stop-color="#7EAFFE"/>
<stop offset="1" stop-color="#4185F4"/>
</linearGradient>
</defs>
</svg>
