<svg width="20" height="20" viewBox="0 0 20 20" fill="none" xmlns="http://www.w3.org/2000/svg">
<path d="M10 0.000494658C7.34782 0.000494658 4.80413 1.05419 2.92913 2.92946C1.05379 4.80478 0.00012207 7.34844 0.00012207 10.0002C0.00012207 12.6521 1.05383 15.1961 2.92913 17.071C4.80447 18.9463 7.34816 20 10 20C10.3248 20 10.6249 19.8267 10.7874 19.5454C10.9497 19.2641 10.9497 18.9175 10.7874 18.6364C10.6249 18.3551 10.3248 18.1818 10 18.1818C7.83004 18.1818 5.74896 17.3199 4.21436 15.7855C2.67975 14.2511 1.81802 12.17 1.81802 9.99991C1.81802 7.82979 2.67997 5.74891 4.21436 4.21433C5.74875 2.67975 7.82987 1.81803 10 1.81803C12.1702 1.81803 14.2511 2.67996 15.7857 4.21433C17.3203 5.7487 18.182 7.82979 18.182 9.99991V12.5971C18.182 13.2002 17.8602 13.7575 17.3379 14.0591C16.8155 14.3608 16.172 14.3608 15.6496 14.0591C15.1275 13.7575 14.8057 13.2002 14.8057 12.5971V6.10375C14.8057 5.77899 14.6324 5.47887 14.3511 5.31639C14.0698 5.15393 13.7232 5.15393 13.442 5.31639C13.1607 5.47885 12.9874 5.77895 12.9874 6.10375V6.26655V6.26638C12.1437 5.57775 11.0893 5.19956 10.0001 5.19458C8.41828 5.18342 6.93213 5.95147 6.02642 7.24848C5.12054 8.54537 4.91113 10.2051 5.46626 11.6862C6.02156 13.1675 7.27018 14.2806 8.80525 14.6628C10.3403 15.045 11.9653 14.647 13.1501 13.5988C13.4717 14.6829 14.2979 15.5445 15.3675 15.9117C16.4371 16.2788 17.6182 16.106 18.5378 15.448C19.4575 14.79 20.0023 13.728 20.0001 12.5971V9.99984C19.997 7.34867 18.9424 4.80701 17.0676 2.93246C15.193 1.05766 12.6511 0.00315337 10.0001 0L10 0.000494658ZM10 12.9877C9.20765 12.9877 8.44794 12.6729 7.88765 12.1128C7.3275 11.5525 7.01275 10.7928 7.01275 10.0005C7.01275 9.20816 7.32753 8.44841 7.88765 7.88813C8.44794 7.32798 9.2077 7.01324 10 7.01324C10.7923 7.01324 11.5521 7.32801 12.1124 7.88813C12.6725 8.44841 12.9873 9.20816 12.9873 10.0005C12.9863 10.7925 12.6713 11.5517 12.1112 12.1116C11.5512 12.6718 10.792 12.9867 9.99997 12.9877L10 12.9877Z" fill="#4185F4"/>
</svg>
