<svg width="66" height="24" viewBox="0 0 66 24" fill="none" xmlns="http://www.w3.org/2000/svg">
<g clip-path="url(#clip0_1304_2684)">
<path fill-rule="evenodd" clip-rule="evenodd" d="M23.8207 7.22222V14.4444H25.5925H27.3642V11.6667C27.3642 9.83333 27.3642 8.83333 27.3642 8.72222C27.4196 8.44445 27.475 8.16667 27.6411 7.94444C27.8625 7.55556 28.2501 7.38889 28.693 7.44445C29.3021 7.5 29.6897 7.83333 29.8004 8.55556C29.8004 8.66667 29.8004 9.77778 29.8004 11.5556V14.3889H31.5721H33.3439V11.0556C33.3439 8.22222 33.3439 7.66667 33.2885 7.38889C33.1778 6.38889 32.8456 5.61111 32.2365 5.05555C31.7382 4.55555 31.1292 4.27778 30.4094 4.16667C30.1326 4.11111 29.3575 4.16667 29.136 4.22222C28.4716 4.38889 27.9733 4.61111 27.5303 5.11111L27.2535 5.33333V2.66667V0H25.4817H23.71V7.22222H23.8207ZM61.4704 0.111112C61.3597 0.333334 57.7608 9.05556 57.7608 9.05556C57.7608 9.05556 58.7021 9.05556 59.8648 9.05556H61.9688L63.8512 4.55556C64.9032 2.05556 65.7337 0 65.7337 0C65.7337 0 64.7925 0 63.6298 0H61.5258L61.4704 0.111112ZM16.0693 4.22222C15.2942 4.33333 14.6851 4.55556 14.0761 4.94445C12.858 5.72222 12.0829 7.05556 11.8614 8.61111C11.7507 9.33333 11.806 10.2222 11.9721 10.8889C12.4151 12.6111 13.5778 13.9444 15.0727 14.4444C15.6264 14.6111 15.8478 14.6667 16.5123 14.6667C17.0106 14.6667 17.1767 14.6667 17.3428 14.6111C18.0625 14.4444 18.5608 14.1667 19.0038 13.7222L19.2253 13.5V13.9444V14.3889H20.9416H22.658V9.38889V4.38889H20.9416H19.2253V4.83333V5.27778L19.0591 5.11111C18.6716 4.66667 18.1179 4.38889 17.3981 4.22222C17.1767 4.16667 17.0659 4.16667 16.623 4.16667C16.3462 4.22222 16.1247 4.22222 16.0693 4.22222ZM38.6591 4.22222C37.7179 4.33333 36.7213 4.77778 36.0015 5.33333C34.6173 6.5 33.8976 8.33333 34.1744 10.2222C34.4512 12.3333 35.9462 13.9444 38.0501 14.5C38.493 14.6111 38.936 14.6667 39.4897 14.6667C40.4863 14.6667 41.206 14.5 41.9812 14.1111C43.5315 13.3333 44.5281 11.9444 44.7495 10.2222C44.8049 9.77778 44.8049 9.05556 44.7495 8.66667C44.6388 7.83333 44.3066 7 43.8083 6.33333C43.5868 6.05556 43.1439 5.55555 42.8671 5.33333C42.0919 4.72222 41.206 4.33333 40.2094 4.22222C39.8219 4.16667 39.0467 4.16667 38.6591 4.22222ZM49.9541 4.22222C49.0128 4.33333 48.0716 4.72222 47.3518 5.33333C47.075 5.55555 46.5767 6.05556 46.4106 6.33333C45.9123 7 45.6354 7.83333 45.4693 8.66667C45.414 9.05556 45.414 9.83333 45.4693 10.2222C45.8015 12.4444 47.4072 14.1667 49.6219 14.6111C50.0648 14.7222 50.2863 14.7222 50.7846 14.7222C51.7258 14.7222 52.5563 14.5556 53.3315 14.1111C55.3801 13.0556 56.4874 10.7222 55.9891 8.33333C55.5462 6.11111 53.7744 4.5 51.5043 4.22222C51.1168 4.16667 50.3416 4.16667 49.9541 4.22222ZM0.400391 4.44444C0.400391 4.44444 1.34163 6.72222 2.50434 9.5C3.66706 12.2778 4.6083 14.5556 4.6083 14.5556C4.6083 14.5556 4.2761 15.3889 3.83316 16.3889C3.39022 17.3889 3.05802 18.1667 3.05802 18.2222C3.05802 18.2778 3.88853 18.2222 4.9405 18.2222H6.82299L9.64672 11.3889C11.197 7.61111 12.4704 4.55555 12.4704 4.5C12.4704 4.5 12.0829 4.44444 10.588 4.5H8.70547L7.54276 7.38889C7.04446 8.94444 6.54615 10.2778 6.54615 10.2778C6.54615 10.2778 6.04785 8.94444 5.38344 7.38889L4.2761 4.5H2.33824C1.28627 4.44444 0.400391 4.44444 0.400391 4.44444ZM17.7857 7.44445C18.5055 7.61111 19.0591 8.16667 19.2806 8.88889C19.336 9.16667 19.336 9.66667 19.2806 9.94445C19.1145 10.6667 18.5608 11.2222 17.8411 11.3889C17.5642 11.4444 17.0659 11.4444 16.7891 11.3889C16.1801 11.2222 15.6264 10.7778 15.4049 10.2222C15.1281 9.61111 15.2388 8.83333 15.571 8.27778C16.0693 7.55556 16.8998 7.27778 17.7857 7.44445ZM39.8772 7.5C40.6524 7.61111 41.2614 8.22222 41.4275 9C41.4829 9.27778 41.4829 9.72222 41.4275 10C41.2614 10.7222 40.7077 11.2222 40.0433 11.4444C39.8219 11.5 39.2128 11.5 38.9913 11.4444C38.4377 11.2778 37.9947 10.8889 37.7179 10.3889C37.5518 10.0556 37.5518 9.88889 37.5518 9.5C37.5518 9.16667 37.6072 9 37.7179 8.72222C37.884 8.38889 38.1055 8.05556 38.4377 7.83333C38.7699 7.5 39.3236 7.38889 39.8772 7.5ZM51.1168 7.5C51.7812 7.61111 52.3349 8.05556 52.5563 8.66667C52.6671 8.94444 52.7224 9.11111 52.7224 9.44444C52.7224 9.83333 52.6671 10 52.5563 10.3333C52.3349 10.8333 51.8365 11.2222 51.2829 11.3889C51.0614 11.4444 50.4524 11.4444 50.2309 11.3889C49.5665 11.2222 49.0128 10.6667 48.8467 9.94445C48.7914 9.66667 48.7914 9.16667 48.8467 8.88889C49.0682 8 49.8433 7.38889 50.7292 7.38889C50.8399 7.44444 51.006 7.44444 51.1168 7.5ZM58.6467 9.94445C57.5947 10.0556 56.8196 10.8333 56.5981 11.8333C56.5428 12.1111 56.5428 12.6111 56.5981 12.8889C56.8196 13.7778 57.484 14.3889 58.3699 14.6111C58.4806 14.6111 58.7021 14.6667 58.8682 14.6667C59.5326 14.6667 60.0863 14.4444 60.5292 14C61.0275 13.5 61.1936 13 61.1936 12.3333C61.1936 11.5 60.806 10.7778 60.1416 10.3889C59.6987 10 59.0897 9.88889 58.6467 9.94445ZM29.4682 15.3889C28.7484 15.6111 28.4162 16.4444 28.8038 17.0556C28.9145 17.2222 29.136 17.4444 29.3021 17.5C29.4682 17.5556 29.4682 17.5556 29.8004 17.5556C30.0772 17.5556 30.1326 17.5556 30.2987 17.5C30.5202 17.3889 30.7416 17.1667 30.8524 16.9444C31.1292 16.3889 30.8524 15.7222 30.2987 15.4444C30.1326 15.3333 30.0772 15.3333 29.8558 15.3333C29.6343 15.3333 29.5789 15.3333 29.4682 15.3889ZM26.4784 15.4444C25.5371 15.6111 24.9281 16.2222 24.6512 17.2222C24.5959 17.3889 24.5959 17.5556 24.5959 17.7778V18.1667H24.2083H23.8207V19V19.8333H24.2083H24.5959V21.8333V23.8333H25.6478H26.6998V21.8333V19.8333H27.4196H28.1394V19V18.1667H27.4196H26.6998V18C26.7552 17.6111 26.9213 17.3333 27.2535 17.2778C27.475 17.2222 27.8072 17.2222 28.0286 17.3333C28.1394 17.3889 28.1947 17.3889 28.1947 17.3889C28.1947 17.3889 28.1947 17 28.1947 16.5V15.6111L28.0286 15.5556C27.8072 15.4444 27.5303 15.4444 27.1428 15.4444C26.8659 15.3889 26.6445 15.4444 26.4784 15.4444ZM34.8942 18.0556C34.4512 18.1667 34.119 18.3889 33.8976 18.6667L33.7868 18.8333V18.5V18.1667H32.7349H31.6829V21V23.8333H32.7349H33.7868V22.2778C33.7868 21.3889 33.7868 20.6667 33.7868 20.5556C33.8422 20.3333 33.9529 20.1111 34.0637 20C34.3405 19.7778 34.8388 19.8333 35.0603 20.1111C35.2264 20.3333 35.2264 20.3333 35.2264 22.1111V23.7778H36.2784H37.3303V21.8889C37.3303 19.8889 37.3303 19.6667 37.2196 19.2778C37.1089 18.9444 36.9981 18.6667 36.7213 18.4444C36.4998 18.2222 36.2784 18.0556 35.9462 18C35.6693 18 35.1156 18 34.8942 18.0556ZM40.1541 18C39.8219 18.0556 39.3236 18.2222 39.0467 18.4444C38.4377 18.8889 38.0501 19.5556 37.884 20.3889C37.8286 20.7222 37.8286 21.3333 37.884 21.6667C37.9947 22.1667 38.1608 22.6667 38.4377 23C38.8252 23.5 39.3236 23.8333 39.9326 23.9444C40.2648 24 40.8185 24 41.0953 23.8889C41.4275 23.7778 41.649 23.6667 41.9258 23.4444L42.1473 23.2222V23.5V23.7778H43.1993H44.2512V20.9444V18.1111H43.1993H42.1473V18.3889V18.6667L41.9812 18.6111C41.7043 18.3333 41.3168 18.1111 40.8738 18.0556C40.7077 18 40.3202 18 40.1541 18ZM48.1823 18.0556C47.7947 18.1111 47.4072 18.3889 47.1857 18.6667L47.075 18.7778V18.4444V18.1111H46.023H44.971V20.9444V23.7778H46.023H47.075V22.1667C47.075 20.4444 47.075 20.4444 47.1857 20.1667C47.2964 19.9444 47.5179 19.8333 47.7394 19.8333C47.9608 19.8333 48.0716 19.8889 48.2377 20C48.4591 20.2222 48.4591 20.1667 48.4591 22.0556V23.7222H49.5111H50.5631V21.6667C50.5631 19.6111 50.5631 19.6111 50.5077 19.3889C50.4524 19.2778 50.397 19.0556 50.3416 18.8889C50.2309 18.6667 50.1755 18.6111 50.0094 18.4444C49.788 18.2222 49.6219 18.1111 49.4004 18C49.0128 18 48.5699 17.9444 48.1823 18.0556ZM53.6637 18.0556C52.7224 18.2222 52.0027 18.6667 51.5597 19.4444C51.449 19.6667 51.3382 19.9444 51.2275 20.2222C51.1721 20.5 51.1721 20.5556 51.1721 21C51.1721 21.5 51.1721 21.6667 51.3382 22.0556C51.6704 23 52.4456 23.7222 53.4976 23.9444C53.6637 24 53.8298 24 54.2173 24C54.771 24 54.9925 23.9444 55.3801 23.7778L55.6015 23.6667V22.7222V21.7778L55.4354 21.8889C55.1586 22.0556 54.9925 22.1111 54.6603 22.1111C54.3281 22.1111 54.162 22.1111 53.9405 22C53.719 21.8889 53.5529 21.7222 53.4422 21.5C53.3868 21.3333 53.3868 21.3333 53.3868 21.0556C53.3868 20.8333 53.3868 20.7778 53.4422 20.6111C53.6083 20.1667 53.9959 19.9444 54.5495 19.8889C54.9371 19.8889 55.1032 19.8889 55.6569 20.1667C55.6569 20.1667 55.6569 19.7222 55.6569 19.2222V18.2778L55.4908 18.2222C54.8817 18 54.2173 17.9444 53.6637 18.0556ZM58.4253 18.0556C56.8196 18.3333 55.823 19.7222 55.9337 21.3333C55.9891 21.8889 56.1552 22.3889 56.432 22.7778C56.8196 23.3889 57.4286 23.7778 58.2038 23.9444C58.536 24 59.4219 24 59.8094 23.9444C60.3631 23.8333 60.8614 23.5556 61.249 23.1667C61.4151 23 61.6919 22.6111 61.6919 22.6111C61.6919 22.6111 61.3043 22.4444 60.806 22.2778L59.9202 21.9444L59.8094 22.0556C59.6433 22.2222 59.5326 22.2778 59.3111 22.3333C58.7021 22.5 58.093 22.1667 57.9823 21.6111V21.5H59.9202H61.858V21C61.858 20.6667 61.858 20.4444 61.8026 20.3333C61.6919 19.6667 61.4151 19.2222 61.0275 18.7778C60.6399 18.3889 60.197 18.1667 59.588 18.0556C59.3665 18 58.7021 18 58.4253 18.0556ZM28.7484 21V23.8333H29.8004H30.8524V21V18.1667H29.8004H28.7484V21ZM59.2558 19.6111C59.4219 19.6667 59.4772 19.7222 59.6433 19.8333C59.7541 19.9444 59.8648 20.0556 59.8648 20.2222V20.3333H58.9236C57.8716 20.3333 57.9269 20.3333 58.0377 20.1111C58.2038 19.7222 58.7021 19.5 59.2558 19.6111ZM41.3721 19.8889C41.649 19.9444 41.9812 20.2222 42.0919 20.5C42.3688 21.1111 42.0919 21.8333 41.4275 22.0556C41.206 22.1111 40.8738 22.1111 40.6524 22.0556C40.3202 21.9444 39.988 21.6667 39.9326 21.3333C39.8772 21.1667 39.8772 21.1111 39.8772 20.9444C39.8772 20.7222 39.8772 20.6667 39.988 20.5C40.2094 20 40.7631 19.7778 41.3721 19.8889Z" fill="#ACB6CA"/>
</g>
<defs>
<clipPath id="clip0_1304_2684">
<rect width="65.3333" height="24" fill="white" transform="translate(0.400391)"/>
</clipPath>
</defs>
</svg>
